<svg xmlns="http://www.w3.org/2000/svg" viewBox="0 0 279.41 136.17"><defs><style>.cls-1{fill-rule:evenodd;}</style></defs><title>logo-rj2-svg</title><g id="Layer_2" data-name="Layer 2"><g id="Layer_1-2" data-name="Layer 1"><path class="cls-1" d="M165.49,6.31c-1.11,1.42-3.61,2.4-6.52,2.4-3.94,0-7.13-1.81-7.13-4a3,3,0,0,1,1.23-2.26C154.17,1,156.68,0,159.58,0c3.94,0,7.13,1.81,7.13,4a3,3,0,0,1-1.22,2.27ZM116,20.91c.43.08.88.14,1.35.2,6.05.7,9.64.49,9.69,2.55s-5.62,7.71-8.18,18.25,8.32,13.4,13.62,12.5,7.56-3,11.34-8c2.89-3.85,7-14.52,8.69-19.32.1,4.77,0,7.57,0,7.57s-3.1,24.62-3.72,25.16-23.86,12.15-26.13,23.15,8.37,15.39,22.62,7.24c13.5-7.73,18.16-24.57,19.75-34.44,14.85-8.29,83.63-49,105.09-36,2,1.2,2.36,4.84,3.45,7a2.59,2.59,0,0,0,3,1.23c1.28-.26,3.24-3.2,2.89-4.15-14.76-29.55-89.73,13.4-113.77,27,.16-1.78.19-2.83.18-2.83s.72-9.27,1.24-12.27.36-15.71.07-16.92-.77-2.68-1.6-3.19-1.06.26-3-1-2.35-1.91-3.41-2A22.48,22.48,0,0,0,153,14.55a2.25,2.25,0,0,0-1,2c.06.95.12,1.87.18,2.75l-.63,1.39c-4.17,9.85-7.2,18.08-13.57,27.19-3.87,5.55-8.27.8-9-4.89s5.86-17.34,7.09-22.3c1.78-7.21-11.47-.91-16.75-2,8.68-5.76,11-14.21,5.12-16.51-3-1.15-8.5-1.41-10.73.73-1.8,1.71-4.75,5.37-4.8,8.23,0,3.49.41,6.62,3.39,8.46-17,12.39-71.3,42.27-99.4,37-2.77-.7-3.49-2.13-6.82-4.37-.89-.72-4.35-.28-5.33.38a2,2,0,0,0,0,3C28.31,74.14,95.94,36.11,116,20.91ZM118.38,3.5c2.46-.09,3.73.56,4.14,2.11,1,3.66-2.79,8.4-7,11.35-5-3.88-.82-9.34,1.33-12.11a7.27,7.27,0,0,1,1.53-1.35ZM147,65.78s-4.13,13-10.64,18.24-11.41,3.61-7.7-2.46S140.79,68.71,147,65.78Z"/><path d="M31.53,119.3l-1.79,1.29c-.21-.19-1-.91-2.23-2.17s-3.25-3.22-5.9-5.89v-.11a8.47,8.47,0,0,0,1.44-.55,7.45,7.45,0,0,0,1.52-.91,4.09,4.09,0,0,0,.92-1,3.16,3.16,0,0,0,.4-1.68,2.52,2.52,0,0,0-.58-1.66,3.35,3.35,0,0,0-1.6-1,7.06,7.06,0,0,0-1.74-.33c-.61,0-1.17,0-1.69,0H19.1q0,2.39,0,4.2c0,1.21,0,2.07,0,2.57,0,1.15,0,2.7,0,4.67s0,3.19,0,3.69H16.76c0-.5,0-1.47,0-2.91s0-3.23,0-5.38v-2.32q0-1.69-.07-6.16l1.43,0c.85,0,1.64,0,2.37,0a23.57,23.57,0,0,1,2.41.12,9.66,9.66,0,0,1,2.29.54,5.1,5.1,0,0,1,2.24,1.55,3.7,3.7,0,0,1,.83,2.39,3.93,3.93,0,0,1-1.25,3,10.73,10.73,0,0,1-2.36,1.75v.07q2,2,4.29,4.14Z"/><path d="M46.84,108.14q-2.79,5.39-5.87,11.44T37.69,126l-2-.64,3-5.37c-.07-.17-.67-1.39-1.79-3.66s-2.48-5-4.09-8.15l2.13-.81c1,2.32,2.12,4.62,3.21,6.88s1.66,3.46,1.71,3.58h0c.06-.08.6-1.19,1.63-3.33s2.16-4.5,3.38-7.08Z"/><path d="M60.21,113.16c0,2.07,0,3.76,0,5.06s0,2,0,2.11l-1.32.09c-.8.06-1.82.08-3.07.08a15.6,15.6,0,0,1-2.35-.18,9.63,9.63,0,0,1-2-.54,4.81,4.81,0,0,1-1.85-1.27,2.82,2.82,0,0,1-.71-1.93,2.87,2.87,0,0,1,.84-2.06A6,6,0,0,1,52,113.11a15.72,15.72,0,0,1,2.48-.61,34.91,34.91,0,0,1,3.54-.4,3.07,3.07,0,0,0-.56-1.61,2.92,2.92,0,0,0-1.38-.95,6.39,6.39,0,0,0-1.4-.32,16,16,0,0,0-1.81-.09l-1.09,0-1.22.07.23-1.67.85,0c.42,0,1,0,1.73,0a13.59,13.59,0,0,1,3,.31,5.52,5.52,0,0,1,2.2,1,4.16,4.16,0,0,1,1.23,1.61A7.38,7.38,0,0,1,60.21,113.16Zm-2.18,3V115.1c0-.43,0-.93,0-1.5-.42,0-1.15.09-2.2.22a13.84,13.84,0,0,0-2.65.56,4.22,4.22,0,0,0-1.42.79,1.64,1.64,0,0,0-.62,1.3,1.83,1.83,0,0,0,.53,1.37,3.43,3.43,0,0,0,1.44.8,8.69,8.69,0,0,0,1.55.3,14.8,14.8,0,0,0,1.8.1h.7l.87,0c0-.06,0-.33,0-.83S58,117,58,116.18Z"/><path d="M77.19,120.3H74.93q0-.35,0-2.31c0-1.31,0-2.13,0-2.43v-1.93q0-1.27,0-1.86a3.09,3.09,0,0,0-.62-2.07,2.75,2.75,0,0,0-2-.62,6.71,6.71,0,0,0-2.16.45,18.4,18.4,0,0,0-2.61,1.15c0,.09,0,.59,0,1.49s0,1.73,0,2.47q0,1.45,0,3.51c0,1.37,0,2.09,0,2.15H65.32s0-.57,0-1.53,0-2.4,0-4.3v-3.09c0-1.17,0-2.43-.05-3.76h2.23l0,1.45,0,0a21.73,21.73,0,0,1,3.34-1.4,8.23,8.23,0,0,1,2.22-.39,4.17,4.17,0,0,1,2.94,1,3.54,3.54,0,0,1,1.11,2.76c0,1.05,0,2,0,2.73s0,1.38,0,1.86c0,.76,0,1.71,0,2.85S77.19,120.25,77.19,120.3Z"/><path d="M95.1,103.53c0,.66,0,1.37,0,2.13s0,1.94,0,3.56v5.57a6.62,6.62,0,0,1-.3,2,4.16,4.16,0,0,1-1.06,1.69,6.36,6.36,0,0,1-2.18,1.34,12.7,12.7,0,0,1-3.7.75l-.28-1.71a18.4,18.4,0,0,0,2.51-.4,3.93,3.93,0,0,0,1.58-.75,2.94,2.94,0,0,0,.9-1.26,5.84,5.84,0,0,0,.27-1.94c0-.86,0-1.71,0-2.54v-2.35q0-2.67,0-3.9c0-.81,0-1.55,0-2.21Z"/><path d="M113.38,114a6.73,6.73,0,0,1-.6,2.79,6.11,6.11,0,0,1-1.71,2.26,6.72,6.72,0,0,1-2.09,1.21,7.85,7.85,0,0,1-2.61.41,8,8,0,0,1-2.57-.41,6.64,6.64,0,0,1-2.15-1.19,6.32,6.32,0,0,1-1.68-2.26,6.84,6.84,0,0,1-.59-2.83,7,7,0,0,1,.5-2.65,6.21,6.21,0,0,1,1.58-2.18,6.75,6.75,0,0,1,2.24-1.34,7.48,7.48,0,0,1,2.68-.47,8,8,0,0,1,2.7.43,6.32,6.32,0,0,1,2.15,1.3,6.47,6.47,0,0,1,1.62,2.22A6.86,6.86,0,0,1,113.38,114Zm-2.29.09a6.25,6.25,0,0,0-.44-2.29,4.61,4.61,0,0,0-1.35-1.88,3.85,3.85,0,0,0-1.32-.73,5,5,0,0,0-1.6-.26,4.68,4.68,0,0,0-1.71.28,4.09,4.09,0,0,0-1.37.86,4.63,4.63,0,0,0-1.2,1.73,5.66,5.66,0,0,0-.44,2.18,6,6,0,0,0,.45,2.35,4.53,4.53,0,0,0,1.43,1.85,4.22,4.22,0,0,0,1.28.67,5.28,5.28,0,0,0,1.55.23,4.86,4.86,0,0,0,1.68-.28,4,4,0,0,0,1.36-.8,4.76,4.76,0,0,0,1.25-1.75A5.52,5.52,0,0,0,111.09,114.05Z"/><path d="M125.2,116.63a2.84,2.84,0,0,1-.51,1.66,4,4,0,0,1-1.35,1.17,7.5,7.5,0,0,1-2.07.73,13.49,13.49,0,0,1-2.64.24c-.47,0-1,0-1.46-.06s-.78-.06-.85-.07l-.08-1.64,1,.07c.58,0,1.15.06,1.72.06.34,0,.76,0,1.29-.08a5.09,5.09,0,0,0,1.3-.27,2.63,2.63,0,0,0,1.06-.68,1.43,1.43,0,0,0,.34-1,1.18,1.18,0,0,0-.3-.84,3.65,3.65,0,0,0-.83-.62,12,12,0,0,0-1.56-.72,15.76,15.76,0,0,1-1.67-.73,4.21,4.21,0,0,1-1.47-1.22,2.74,2.74,0,0,1-.5-1.63,2.6,2.6,0,0,1,.58-1.66,4.09,4.09,0,0,1,1.55-1.19,6,6,0,0,1,1.87-.53,15.12,15.12,0,0,1,2-.14c.59,0,1.06,0,1.44,0l.64,0,.16,1.67-.88,0c-.52,0-1.09,0-1.71,0a7.31,7.31,0,0,0-1.26.1,4.05,4.05,0,0,0-1,.29,2,2,0,0,0-.88.66,1.33,1.33,0,0,0-.27.75,1.17,1.17,0,0,0,.38.87,3.4,3.4,0,0,0,.87.61c.39.2.93.44,1.61.72a13.91,13.91,0,0,1,1.47.66,4.91,4.91,0,0,1,1.53,1.23A2.54,2.54,0,0,1,125.2,116.63Z"/><path d="M140.39,113.5H130.05a5,5,0,0,0,.64,2.44,4.82,4.82,0,0,0,1.93,1.83,6.93,6.93,0,0,0,1.89.7,12.3,12.3,0,0,0,2.54.23c.55,0,1,0,1.5,0l.83,0-.25,1.67-.76,0c-.43,0-.93,0-1.52,0a13.53,13.53,0,0,1-4-.52,7.76,7.76,0,0,1-2.78-1.43,6.46,6.46,0,0,1-1.58-2,5.43,5.43,0,0,1-.65-2.64,6.49,6.49,0,0,1,.49-2.58,6.88,6.88,0,0,1,1.45-2.14,5.78,5.78,0,0,1,2.1-1.32,7.8,7.8,0,0,1,4.95-.11,4.81,4.81,0,0,1,1.79,1.06,5.4,5.4,0,0,1,1.29,2A8.3,8.3,0,0,1,140.39,113.5Zm-2.22-1.4a3.93,3.93,0,0,0-1.21-2.44,3.69,3.69,0,0,0-2.58-.88,4,4,0,0,0-2.67.89,4.66,4.66,0,0,0-1.49,2.43Z"/><path d="M156.54,113.58a5.53,5.53,0,0,1-1,3.3A6.94,6.94,0,0,1,152.9,119a12.37,12.37,0,0,1-3.21,1,21.58,21.58,0,0,1-3.31.27l.05,5.76h-2.27c0-.15,0-1.3,0-3.47s0-4.34,0-6.52c0-1.1,0-2.37,0-3.82s0-3,0-4.68h1.6a29.26,29.26,0,0,1,4.66.28,10.29,10.29,0,0,1,3,1,5.93,5.93,0,0,1,2.27,2A4.91,4.91,0,0,1,156.54,113.58Zm-2.28.07a3.64,3.64,0,0,0-.66-2.16,4.71,4.71,0,0,0-1.72-1.46,8.09,8.09,0,0,0-2.18-.7,15.61,15.61,0,0,0-2.65-.22h-.65c0,.15,0,.64,0,1.49s0,2.31,0,4.38c0,.44,0,1,0,1.83s0,1.41,0,1.88a17.53,17.53,0,0,0,2.69-.22,9.79,9.79,0,0,0,2.21-.6,5.2,5.2,0,0,0,2.22-1.66A4.27,4.27,0,0,0,154.26,113.65Z"/><path d="M172.27,120.3H170c0-.25,0-1,0-2.26s0-2.08,0-2.48,0-1.08,0-1.93,0-1.47,0-1.86a3.15,3.15,0,0,0-.63-2.07,2.72,2.72,0,0,0-2-.62,6.78,6.78,0,0,0-2.09.43,18.57,18.57,0,0,0-2.68,1.16l0,9.63H160.4c0-.32,0-1.64,0-3.94s0-4.19,0-5.68c0-1,0-2.19,0-3.66s0-3.17,0-5.08h2.26l0,7.13h0a22.64,22.64,0,0,1,3.35-1.39,7.93,7.93,0,0,1,2.23-.39,4.17,4.17,0,0,1,2.94,1,3.56,3.56,0,0,1,1.1,2.76c0,1.05,0,2,0,2.73s0,1.38,0,1.86q0,1.14,0,2.61C172.25,119.26,172.26,119.94,172.27,120.3Z"/><path d="M198.67,105.29h-7c0,1.71,0,3-.05,3.9s0,2.09,0,3.62,0,3,0,4.49,0,2.52,0,3h-2.36c0-.5,0-1.52.05-3.07s0-3.06,0-4.54v-3.46c0-.86,0-2.18,0-4-2,0-3.68,0-4.94,0H182.3v-1.73l3.58,0h10.28l2.51,0Z"/><path d="M204,105.19h-2.51V103H204Zm-.13,15.11h-2.26c0-.13,0-1,0-2.46s0-2.77,0-3.75,0-1.81,0-2.84,0-2.24,0-3.63h2.26c0,1.21,0,2.33-.05,3.38s0,2,0,2.8c0,2,0,3.51,0,4.69S203.84,120.27,203.84,120.3Z"/><path d="M220.16,107.51c0,.18,0,1,0,2.48s0,2.87,0,4.2c0,.9,0,1.82,0,2.76s0,1.79,0,2.57a5.18,5.18,0,0,1-3.21,5.3,13.59,13.59,0,0,1-3,.87,24.31,24.31,0,0,1-4.23.32l-.23-1.6q1.67,0,3-.15a12.06,12.06,0,0,0,2.42-.48,4.62,4.62,0,0,0,2.33-1.46,3.92,3.92,0,0,0,.68-2.22h-.68a18.64,18.64,0,0,1-3.51-.35,9.35,9.35,0,0,1-3.07-1.14,6.11,6.11,0,0,1-2.05-1.93,5.24,5.24,0,0,1-.78-2.94,4.73,4.73,0,0,1,1.1-3.1,7.61,7.61,0,0,1,2.94-2.13,11.76,11.76,0,0,1,2.87-.78,26.73,26.73,0,0,1,3.75-.22h1.65ZM218,114.17c0-.6,0-1.35,0-2.25s0-1.84,0-2.82h-.37a15.9,15.9,0,0,0-2.33.15,10.09,10.09,0,0,0-2.09.57,4.65,4.65,0,0,0-2.23,1.61,4,4,0,0,0-.77,2.4,3.73,3.73,0,0,0,.76,2.36,5,5,0,0,0,2,1.51,10.68,10.68,0,0,0,2,.59,12.62,12.62,0,0,0,2.43.22h.53c0-.1,0-.56,0-1.39S218,115.31,218,114.17Z"/><path d="M227.77,120.3h-2.26q0-.15,0-3.66c0-2.34,0-4.29,0-5.83V107c0-1.51,0-3.22-.05-5.1h2.26c0,1.28,0,2.77-.05,4.46s0,3.12,0,4.28c0,2.53,0,4.75,0,6.64S227.77,120.21,227.77,120.3Z"/><path d="M243.09,113.16c0,2.07,0,3.76,0,5.06s0,2,0,2.11l-1.32.09c-.8.06-1.82.08-3.07.08a15.6,15.6,0,0,1-2.35-.18,9.63,9.63,0,0,1-2-.54,4.81,4.81,0,0,1-1.85-1.27,2.82,2.82,0,0,1-.71-1.93,2.87,2.87,0,0,1,.84-2.06,6,6,0,0,1,2.32-1.41,15.72,15.72,0,0,1,2.48-.61,34.91,34.91,0,0,1,3.54-.4,3.07,3.07,0,0,0-.56-1.61,2.92,2.92,0,0,0-1.38-.95,6.39,6.39,0,0,0-1.4-.32,16,16,0,0,0-1.81-.09l-1.09,0-1.22.07.23-1.67.85,0c.42,0,1,0,1.73,0a13.59,13.59,0,0,1,3,.31,5.52,5.52,0,0,1,2.2,1,4.16,4.16,0,0,1,1.23,1.61A7.38,7.38,0,0,1,243.09,113.16Zm-2.19,3V115.1c0-.43,0-.93,0-1.5-.42,0-1.15.09-2.2.22a13.84,13.84,0,0,0-2.65.56,4.22,4.22,0,0,0-1.42.79,1.64,1.64,0,0,0-.62,1.3,1.83,1.83,0,0,0,.53,1.37,3.43,3.43,0,0,0,1.44.8,8.69,8.69,0,0,0,1.55.3,14.8,14.8,0,0,0,1.8.1h.7l.87,0c0-.06,0-.33,0-.83Z"/><path d="M260.91,114a6.88,6.88,0,0,1-.59,2.79,6.34,6.34,0,0,1-1.71,2.26,6.89,6.89,0,0,1-2.1,1.21,7.77,7.77,0,0,1-2.61.41,8,8,0,0,1-2.57-.41,6.59,6.59,0,0,1-2.14-1.19,6.23,6.23,0,0,1-1.69-2.26,7,7,0,0,1-.59-2.83,6.77,6.77,0,0,1,.51-2.65,6.09,6.09,0,0,1,1.58-2.18,6.71,6.71,0,0,1,2.23-1.34,7.54,7.54,0,0,1,2.69-.47,7.87,7.87,0,0,1,2.69.43,6.27,6.27,0,0,1,2.16,1.3,6.44,6.44,0,0,1,1.61,2.22A6.86,6.86,0,0,1,260.91,114Zm-2.29.09a6.24,6.24,0,0,0-.43-2.29,4.54,4.54,0,0,0-1.36-1.88,3.85,3.85,0,0,0-1.32-.73,5,5,0,0,0-1.59-.26,4.74,4.74,0,0,0-1.72.28,4.3,4.3,0,0,0-1.37.86,4.61,4.61,0,0,0-1.19,1.73,5.48,5.48,0,0,0-.44,2.18,6.22,6.22,0,0,0,.44,2.35,4.62,4.62,0,0,0,1.43,1.85,4.16,4.16,0,0,0,1.29.67,5.22,5.22,0,0,0,1.54.23,4.86,4.86,0,0,0,1.68-.28A4,4,0,0,0,257,118a4.74,4.74,0,0,0,1.24-1.75A5.52,5.52,0,0,0,258.62,114.05Z"/><path d="M47.77,135.61s0,.08,0,.18,0,.22,0,.34h-.16a7.78,7.78,0,0,1-2-.23,4,4,0,0,1-1.42-.65,2.43,2.43,0,0,1-.61-.71,2,2,0,0,1-.22-.95,1.76,1.76,0,0,1,.22-.87,2.36,2.36,0,0,1,.58-.68,4.06,4.06,0,0,1,1.4-.68,7.2,7.2,0,0,1,1.89-.24h.2s0,.11,0,.21,0,.2,0,.31h-.15a7,7,0,0,0-1.18.1,4.38,4.38,0,0,0-1.05.3,2.21,2.21,0,0,0-.88.68,1.41,1.41,0,0,0-.31.88,1.52,1.52,0,0,0,.28.9,2,2,0,0,0,.87.68,4.56,4.56,0,0,0,1.1.33,7.14,7.14,0,0,0,1.21.1h.21Z"/><path d="M53.8,135.77l-.57.37c-.07,0-.3-.26-.71-.63l-1.87-1.72v0a3.22,3.22,0,0,0,.46-.16,2.16,2.16,0,0,0,.48-.27,1.11,1.11,0,0,0,.3-.31.87.87,0,0,0,.12-.49.7.7,0,0,0-.18-.48,1,1,0,0,0-.51-.3,2,2,0,0,0-.55-.1h-.91c0,.46,0,.87,0,1.23v.75c0,.33,0,.79,0,1.36s0,.93,0,1.08h-.75c0-.15,0-.43,0-.85s0-1,0-1.57V133c0-.33,0-.93,0-1.8h1.21c.26,0,.52,0,.76,0a3.66,3.66,0,0,1,.73.16,1.55,1.55,0,0,1,.71.45,1,1,0,0,1,.26.7,1.11,1.11,0,0,1-.39.87,3.56,3.56,0,0,1-.75.51v0c.41.39.87.79,1.36,1.21Z"/><path d="M58.87,136.05H55c0-.14,0-.44,0-.92s0-.95,0-1.46c0-.27,0-.64,0-1.09s0-.92,0-1.41h3.81v.51H55.75c0,.28,0,.55,0,.83s0,.53,0,.78h3.08v.5H55.73c0,.46,0,.82,0,1.09v.68h3.13Z"/><path d="M65.67,135.86l-.7.3s-.11-.21-.29-.55-.42-.77-.72-1.3H61.27c-.32.57-.57,1-.74,1.33l-.29.52-.6-.27,1-1.67c.57-1,1.16-2,1.78-3.13H63c.6,1.09,1.2,2.15,1.78,3.18S65.65,135.82,65.67,135.86Zm-2-2-.51-.94c-.17-.32-.36-.66-.56-1h0l-.55,1-.53,1H63.7Z"/><path d="M71,131.68H68.75c0,.5,0,.88,0,1.14v2.37c0,.44,0,.73,0,.88H68c0-.15,0-.45,0-.9s0-.89,0-1.32v-1c0-.25,0-.63,0-1.15H65.78v-.51H71Z"/><path d="M72.84,136.06H72.1c0-.15,0-.41,0-.78s0-.92,0-1.62c0-.28,0-.64,0-1.09s0-.92,0-1.41h.74c0,.35,0,.75,0,1.22s0,.84,0,1.13c0,.74,0,1.31,0,1.72S72.84,135.91,72.84,136.06Z"/><path d="M80,131.33,79,133c-.63,1.08-1.22,2.13-1.79,3.13h-.61c-.62-1.12-1.22-2.19-1.79-3.19s-.88-1.53-.9-1.58l.7-.28s.3.55.82,1.52,1,1.88,1.52,2.73h0c.5-.87,1-1.8,1.55-2.76s.81-1.47.82-1.5Z"/><path d="M81.89,136.06h-.75c0-.15,0-.41,0-.78s0-.92,0-1.62c0-.28,0-.64,0-1.09s0-.92,0-1.41h.75c0,.35,0,.75,0,1.22s0,.84,0,1.13c0,.74,0,1.31,0,1.72S81.89,135.91,81.89,136.06Z"/><path d="M88.21,131.68H86c0,.5,0,.88,0,1.14v2.37c0,.44,0,.73,0,.88h-.75c0-.15,0-.45,0-.9s0-.89,0-1.32v-1c0-.25,0-.63,0-1.15H83v-.51h5.2Z"/><path d="M93.6,131.4s-.33.33-.9.91l-1.39,1.41c0,.44,0,.91,0,1.39s0,.8,0,.95h-.75c0-.15,0-.47,0-1v-1.33c-.37-.4-.82-.87-1.37-1.43l-.88-.9.6-.36.71.76L91,133.25h0c.42-.45.87-.91,1.34-1.4s.71-.75.74-.77Z"/><path d="M97.78,136.06H97c0-.15,0-.41,0-.78s0-.92,0-1.62c0-.28,0-.64,0-1.09s0-.92,0-1.41h.74c0,.35,0,.75,0,1.22s0,.84,0,1.13c0,.74,0,1.31,0,1.72S97.78,135.91,97.78,136.06Z"/><path d="M103,134.68a1.09,1.09,0,0,1-.22.66,1.66,1.66,0,0,1-.6.46,3,3,0,0,1-.78.24,4.88,4.88,0,0,1-1,.09l-.6,0-.36,0,0-.52.36,0c.19,0,.42,0,.68,0a3.91,3.91,0,0,0,.62-.05,2.64,2.64,0,0,0,.59-.13,1,1,0,0,0,.41-.26.5.5,0,0,0,.14-.38.59.59,0,0,0-.14-.41,1.46,1.46,0,0,0-.47-.33l-.56-.23c-.22-.09-.43-.17-.61-.26a1.73,1.73,0,0,1-.66-.5,1,1,0,0,1-.2-.6,1,1,0,0,1,.18-.58,1.47,1.47,0,0,1,.47-.42,2.19,2.19,0,0,1,.71-.27,4.48,4.48,0,0,1,.93-.08h.9l.07.53-.33,0c-.2,0-.44,0-.72,0a3.23,3.23,0,0,0-.53,0,2,2,0,0,0-.47.14,1,1,0,0,0-.31.24.56.56,0,0,0-.13.35.53.53,0,0,0,.14.34,1.34,1.34,0,0,0,.5.35l.49.21a5.42,5.42,0,0,1,.6.26,2,2,0,0,1,.69.49A1,1,0,0,1,103,134.68Z"/><path d="M107.68,136.06h-.75c0-.15,0-.41,0-.78s0-.92,0-1.62v-1.09c0-.46,0-.92,0-1.41h.75c0,.35,0,.75,0,1.22s0,.84,0,1.13c0,.74,0,1.31,0,1.72S107.67,135.91,107.68,136.06Z"/><path d="M115,131.16c0,.38,0,.82,0,1.31s0,.85,0,1.07c0,.69,0,1.24,0,1.65s0,.63,0,.65l-.61.24c-.91-1-1.76-1.89-2.56-2.69s-1.25-1.27-1.38-1.39h0c0,.66,0,1.46,0,2.41s0,1.5,0,1.65h-.71c0-.06,0-.28,0-.65s0-.89,0-1.56c0-.27,0-.62,0-1.06s0-.91,0-1.4l.69-.26c.06.05.52.53,1.39,1.42l2.47,2.49h0c0-.37,0-1,0-1.89s0-1.55,0-2Z"/><path d="M121.34,131.68h-2.23c0,.5,0,.88,0,1.14v2.37c0,.44,0,.73,0,.88h-.75c0-.15,0-.45,0-.9s0-.89,0-1.32v-1c0-.25,0-.63,0-1.15h-2.22v-.51h5.19Z"/><path d="M126.31,136.05h-3.86c0-.14,0-.44,0-.92s0-.95,0-1.46v-1.09c0-.45,0-.92,0-1.41h3.8v.51h-3.06c0,.28,0,.55,0,.83s0,.53,0,.78h3.08v.5h-3.08c0,.46,0,.82,0,1.09s0,.5,0,.68h3.12Z"/><path d="M131.79,136.05h-3.73c0-.42,0-.84,0-1.27s0-.86,0-1.27c0-.69,0-1.22,0-1.59s0-.61,0-.76h.75c0,.31,0,.68,0,1.09s0,.75,0,1c0,.64,0,1.18,0,1.61v.68h3Z"/><path d="M136.8,136.05h-3.72c0-.42,0-.84,0-1.27s0-.86,0-1.27c0-.69,0-1.22,0-1.59s0-.61,0-.76h.74c0,.31,0,.68,0,1.09v2.62c0,.43,0,.65,0,.68h3Z"/><path d="M138.85,136.06h-.75c0-.15,0-.41,0-.78s0-.92,0-1.62v-1.09c0-.46,0-.92,0-1.41h.75c0,.35,0,.75,0,1.22s0,.84,0,1.13c0,.74,0,1.31,0,1.72S138.84,135.91,138.85,136.06Z"/><path d="M145.47,133.54c0,.18,0,.38,0,.62s0,.43,0,.58,0,.52,0,.83,0,.47,0,.5l-.27,0h-.45a9.05,9.05,0,0,1-1.91-.18,3.66,3.66,0,0,1-1.44-.65,2.32,2.32,0,0,1-.61-.71,2,2,0,0,1-.23-1,1.83,1.83,0,0,1,.44-1.19,3,3,0,0,1,1.21-.84,5.46,5.46,0,0,1,1.18-.34,9,9,0,0,1,1.39-.11h.39l.05.52h-.35a8.24,8.24,0,0,0-1.27.09,4.89,4.89,0,0,0-1,.28,2.24,2.24,0,0,0-.92.68,1.48,1.48,0,0,0-.33.91,1.51,1.51,0,0,0,.34,1,2.37,2.37,0,0,0,.9.62,4.44,4.44,0,0,0,1,.29,8.35,8.35,0,0,0,1.13.08V135c0-.34,0-.84,0-1.5Z"/><path d="M151.24,136.05h-3.87c0-.14,0-.44,0-.92s0-.95,0-1.46c0-.27,0-.64,0-1.09s0-.92,0-1.41h3.81v.51h-3.06c0,.28,0,.55,0,.83s0,.53,0,.78h3.08v.5H148.1c0,.46,0,.82,0,1.09v.68h3.13Z"/><path d="M158.22,131.16c0,.38,0,.82,0,1.31v1.07c0,.69,0,1.24,0,1.65s0,.63,0,.65l-.61.24c-.91-1-1.77-1.89-2.56-2.69s-1.25-1.27-1.38-1.39h0c0,.66,0,1.46,0,2.41s0,1.5,0,1.65H153c0-.06,0-.28,0-.65s0-.89,0-1.56v-1.06c0-.44,0-.91,0-1.4l.69-.26c.06.05.52.53,1.39,1.42l2.47,2.49h0c0-.37,0-1,0-1.89s0-1.55,0-2Z"/><path d="M164.36,135.61s0,.08,0,.18,0,.22,0,.34h-.16a7.84,7.84,0,0,1-2-.23,4.06,4.06,0,0,1-1.42-.65,2.43,2.43,0,0,1-.61-.71,2,2,0,0,1-.22-.95,1.76,1.76,0,0,1,.22-.87,2.36,2.36,0,0,1,.58-.68,4,4,0,0,1,1.41-.68,7.07,7.07,0,0,1,1.88-.24h.2s0,.11,0,.21,0,.2,0,.31h-.15a7,7,0,0,0-1.18.1,4.67,4.67,0,0,0-1.05.3,2.28,2.28,0,0,0-.88.68,1.41,1.41,0,0,0-.31.88,1.52,1.52,0,0,0,.28.9,2,2,0,0,0,.88.68,4.35,4.35,0,0,0,1.09.33,7.14,7.14,0,0,0,1.21.1h.21Z"/><path d="M169.57,136.05H165.7c0-.14,0-.44,0-.92s0-.95,0-1.46c0-.27,0-.64,0-1.09s0-.92,0-1.41h3.81v.51h-3.06c0,.28,0,.55,0,.83s0,.53,0,.78h3.08v.5h-3.08v1.09c0,.27,0,.5,0,.68h3.13Z"/><path d="M178.79,136.06H178c0-.15,0-.42,0-.81s0-.89,0-1.47h-3.68v1.54c0,.35,0,.59,0,.74h-.75c0-.15,0-.41,0-.78s0-1,0-1.89c0-.27,0-.6,0-1s0-.8,0-1.25h.75c0,.37,0,.74,0,1.09v1h3.68c0-.32,0-.66,0-1s0-.72,0-1.09h.75c0,.37,0,.79,0,1.28v1.18c0,.72,0,1.27,0,1.65S178.79,135.91,178.79,136.06Z"/><path d="M186,135.86l-.71.3s-.11-.21-.29-.55-.42-.77-.72-1.3h-2.69l-.74,1.33-.28.52-.61-.27c.08-.12.4-.68,1-1.67s1.17-2,1.78-3.13h.59l1.78,3.18C185.63,135.29,185.93,135.82,186,135.86Zm-2-2c-.17-.3-.34-.61-.51-.94s-.37-.66-.56-1h0c-.16.27-.34.59-.55,1l-.54,1H184Z"/><path d="M192.1,131.33s-.33.59-1,1.67l-1.79,3.13h-.6c-.63-1.12-1.23-2.19-1.8-3.19l-.9-1.58.71-.28s.29.55.82,1.52,1,1.88,1.52,2.73h0c.5-.87,1-1.8,1.55-2.76s.81-1.47.83-1.5Z"/><path d="M194,136.06h-.75c0-.15,0-.41,0-.78s0-.92,0-1.62c0-.28,0-.64,0-1.09s0-.92,0-1.41H194c0,.35,0,.75,0,1.22s0,.84,0,1.13c0,.74,0,1.31,0,1.72S194,135.91,194,136.06Z"/><path d="M201.35,131.16c0,.38,0,.82,0,1.31v1.07c0,.69,0,1.24,0,1.65s0,.63,0,.65l-.61.24c-.91-1-1.77-1.89-2.56-2.69L196.8,132h0c0,.66,0,1.46,0,2.41s0,1.5,0,1.65h-.71c0-.06,0-.28,0-.65s0-.89,0-1.56v-1.06c0-.44,0-.91,0-1.4l.69-.26,1.39,1.42c.87.89,1.7,1.72,2.47,2.49h0c0-.37,0-1,0-1.89s0-1.55,0-2Z"/><path d="M208,133.54c0,.18,0,.38,0,.62s0,.43,0,.58,0,.52,0,.83,0,.47,0,.5l-.27,0h-.45a9.05,9.05,0,0,1-1.91-.18,3.79,3.79,0,0,1-1.44-.65,2.17,2.17,0,0,1-.6-.71,1.93,1.93,0,0,1-.23-1,1.77,1.77,0,0,1,.44-1.19,3,3,0,0,1,1.2-.84,5.39,5.39,0,0,1,1.19-.34,8.8,8.8,0,0,1,1.39-.11h.38l.06.52h-.35a8.38,8.38,0,0,0-1.28.09,5.07,5.07,0,0,0-1,.28,2.31,2.31,0,0,0-.92.68,1.48,1.48,0,0,0-.33.91,1.52,1.52,0,0,0,.35,1,2.37,2.37,0,0,0,.9.62,4.36,4.36,0,0,0,1,.29,8.47,8.47,0,0,0,1.13.08V135c0-.34,0-.84,0-1.5Z"/><path d="M215.91,131.68h-3c0,.28,0,.58,0,.9s0,.6,0,.85h3v.51h-3c0,.43,0,.84,0,1.22s0,.7,0,.93h-.75c0-.15,0-.41,0-.78v-2.71c0-.45,0-.92,0-1.4h3.72Z"/><path d="M222.44,131.16c0,.47,0,.86,0,1.16v2a1.6,1.6,0,0,1-.16.75,1.5,1.5,0,0,1-.47.57,2.58,2.58,0,0,1-.78.38,4.51,4.51,0,0,1-2.15,0,2.47,2.47,0,0,1-.78-.38,1.63,1.63,0,0,1-.48-.57,1.73,1.73,0,0,1-.15-.75v-1.22c0-.23,0-.49,0-.8v-1.16h.74c0,.06,0,.27,0,.62v2.53a1.17,1.17,0,0,0,.48,1,2.15,2.15,0,0,0,1.29.35,2.22,2.22,0,0,0,1.32-.33,1.21,1.21,0,0,0,.44-1v-1.13c0-.57,0-1.05,0-1.42v-.6Z"/><path d="M229.74,131.16c0,.38,0,.82,0,1.31s0,.85,0,1.07c0,.69,0,1.24,0,1.65s0,.63,0,.65l-.6.24c-.92-1-1.77-1.89-2.57-2.69L225.2,132h0c0,.66,0,1.46,0,2.41s0,1.5,0,1.65h-.71c0-.06,0-.28,0-.65s0-.89,0-1.56c0-.27,0-.62,0-1.06s0-.91,0-1.4l.69-.26c.06.05.52.53,1.4,1.42l2.46,2.49h0c0-.37,0-1,0-1.89s0-1.55,0-2Z"/></g></g></svg>